<?xml version="1.0" encoding="UTF-8"?>
<svg id="Layer_1" data-name="Layer 1" xmlns="http://www.w3.org/2000/svg" viewBox="0 0 371.2885 81.5247">
  <g id="type">
    <path id="type_CompoundPathItem_" data-name="type &amp;lt;CompoundPathItem&amp;gt;" d="m185.957,69.518c0,2.4105-1.6855,4.0779-4.5309,4.0779h-2.3016v4.4945h-2.0479v-12.6864h4.3495c2.8454,0,4.5309,1.7037,4.5309,4.114Zm-2.0479,0c0-1.5405-.9605-2.3016-2.5735-2.3016h-2.2111v4.6396h2.2111c1.613,0,2.5735-.7975,2.5735-2.338Z" style="fill: #17181b; stroke-width: 0px;"/>
    <path id="type_CompoundPathItem_-2" data-name="type &amp;lt;CompoundPathItem&amp;gt;" d="m194.0211,70.1343v-1.4682h1.9938v9.4243h-1.9938v-1.5587c-.2355.7614-1.359,1.6855-2.8815,1.6855-1.9936,0-4.4584-1.5587-4.4584-4.839,0-3.226,2.4649-4.8208,4.4584-4.8208,1.5225,0,2.6278.7975,2.8815,1.5769Zm-5.3464,3.2439c0,2.0482,1.4682,3.1173,2.7729,3.1173,1.2868,0,2.6642-.9062,2.6642-3.1173,0-2.2291-1.3775-3.0991-2.6642-3.0991-1.3047,0-2.7729,1.0694-2.7729,3.0991Z" style="fill: #17181b; stroke-width: 0px;"/>
    <path id="type_CompoundPathItem_-3" data-name="type &amp;lt;CompoundPathItem&amp;gt;" d="m204.1698,68.63v1.8485c-.2719-.0361-.4892-.0361-.7973-.0361-1.7037,0-3.1537,1.2142-3.371,3.2078v4.4402h-1.9936v-9.4243h1.9936v2.9544c.1994-1.6312,1.3772-3.0448,3.389-3.0448.2901,0,.562.0182.7793.0543Z" style="fill: #17181b; stroke-width: 0px;"/>
    <path id="type_CompoundPathItem_-4" data-name="type &amp;lt;CompoundPathItem&amp;gt;" d="m208.5734,70.2973v5.2739c0,.5074.1812.9062.7611.9062.4892,0,.8337-.0905,1.2324-.2537v1.6494c-.3988.1994-.9244.3262-1.7399.3262-1.1781,0-2.2473-.4713-2.2473-2.5556v-5.3464h-1.2324v-1.6312h1.2324v-1.6309h1.9936v1.6309h1.9936v1.6312h-1.9936Z" style="fill: #17181b; stroke-width: 0px;"/>
    <path id="type_CompoundPathItem_-5" data-name="type &amp;lt;CompoundPathItem&amp;gt;" d="m226.7865,73.3964c0,3.2803-2.7365,4.8208-4.7121,4.8208s-4.7121-1.5405-4.7121-4.8208c0-3.2621,2.7368-4.839,4.7121-4.839s4.7121,1.5769,4.7121,4.839Zm-7.4304,0c0,2.0661,1.4497,3.0809,2.7183,3.0809s2.7186-1.0148,2.7186-3.0809c0-2.0843-1.4497-3.0991-2.7186-3.0991s-2.7183,1.0148-2.7183,3.0991Z" style="fill: #17181b; stroke-width: 0px;"/>
    <path id="type_CompoundPathItem_-6" data-name="type &amp;lt;CompoundPathItem&amp;gt;" d="m230.9542,68.3219v.3442h2.4287v1.6312h-2.4287v7.7931h-1.9936v-7.7931h-1.0874v-1.6312h1.0874v-.3806c0-2.6096,1.8667-3.0266,3.0448-3.0266.8337,0,1.613.2358,2.2111.562l-.6707,1.3954c-.4713-.1994-.9423-.308-1.4318-.308-.9241,0-1.1599.6525-1.1599,1.4136Z" style="fill: #17181b; stroke-width: 0px;"/>
    <path id="type_CompoundPathItem_-7" data-name="type &amp;lt;CompoundPathItem&amp;gt;" d="m278.1755,78.19h-.0725l-8.0832-8.3733v8.2644h-2.0479v-12.795h.0543l8.1011,8.3909v-8.2823h2.0482v12.7953Z" style="fill: #17181b; stroke-width: 0px;"/>
    <path id="type_CompoundPathItem_-8" data-name="type &amp;lt;CompoundPathItem&amp;gt;" d="m289.103,73.3872c0,.2537-.0179.4531-.0543.6886h-7.1949c.1994,1.613,1.5769,2.4105,2.809,2.4105.9426,0,1.613-.2901,2.2291-.8339l1.1784,1.1056c-.8339.9426-2.0118,1.45-3.4075,1.45-2.1204,0-4.8569-1.5405-4.8569-4.8208,0-3.2621,2.6458-4.839,4.6757-4.839s4.6214,1.6312,4.6214,4.839Zm-7.231-.7429h5.2378c-.2179-1.613-1.4682-2.3744-2.6099-2.3744-1.1599,0-2.4105.7614-2.6278,2.3744Z" style="fill: #17181b; stroke-width: 0px;"/>
    <path id="type_CompoundPathItem_-9" data-name="type &amp;lt;CompoundPathItem&amp;gt;" d="m294.1775,74.6375l-2.4649,3.4436h-2.2473l3.6066-4.8208-3.3346-4.6035h2.2109l2.2293,3.226,2.2293-3.226h2.2109l-3.3346,4.6035,3.6066,4.8208h-2.2476l-2.4646-3.4436Z" style="fill: #17181b; stroke-width: 0px;"/>
    <path id="type_CompoundPathItem_-10" data-name="type &amp;lt;CompoundPathItem&amp;gt;" d="m309.0744,68.6569v9.4243h-1.9938v-2.1022c-.1812.7247-1.2686,2.2291-3.2621,2.2291-1.8124,0-3.4797-1.0148-3.4797-4.0235v-5.5276h1.9936v5.5276c0,1.7037.7975,2.3019,1.9754,2.3019,1.4679,0,2.6099-1.6494,2.7729-2.646v-5.1834h1.9938Z" style="fill: #17181b; stroke-width: 0px;"/>
    <path id="type_CompoundPathItem_-11" data-name="type &amp;lt;CompoundPathItem&amp;gt;" d="m314.3111,70.2337c-.7247,0-1.1957.3624-1.1957.9241,0,.4895.2537.8339,1.0148,1.1056l1.0328.3624c1.5407.5438,2.8457,1.0151,2.8457,2.7729,0,1.8667-1.9756,2.8093-3.6976,2.8093-1.6673,0-3.2439-.8698-3.697-2.4649l1.6494-.5253c.3442.8516,1.1414,1.2865,2.0476,1.2865.8883,0,1.613-.3988,1.613-1.1235,0-.5982-.3985-.9426-1.196-1.2324l-1.0692-.3806c-1.7399-.6161-2.6096-1.2686-2.6096-2.646,0-1.5948,1.4859-2.5735,3.1896-2.5735,1.6852,0,2.7186.8337,3.3167,2.1747l-1.7219.4713c-.3806-.6704-.8516-.9605-1.5225-.9605Z" style="fill: #17181b; stroke-width: 0px;"/>
    <path id="type_CompoundPathItem_-12" data-name="type &amp;lt;CompoundPathItem&amp;gt;" d="m325.8552,78.208c-3.3167,0-6.4881-2.646-6.4881-6.4699s3.1535-6.4702,6.4517-6.4702c1.9756,0,3.4618.8337,4.3498,1.8485l-1.2686,1.3957c-.5982-.6889-1.6855-1.2688-3.0448-1.2688-2.2291,0-4.2588,1.8667-4.2588,4.4763s2.084,4.513,4.2952,4.513c1.8303,0,3.1717-1.0148,3.6248-2.7186h-2.2476v-1.7945h4.3859c.1815,3.9692-2.4467,6.4884-5.7995,6.4884Z" style="fill: #17181b; stroke-width: 0px;"/>
    <path id="type_CompoundPathItem_-13" data-name="type &amp;lt;CompoundPathItem&amp;gt;" d="m339.4472,68.6207v1.8485c-.2719-.0361-.4892-.0361-.7973-.0361-1.7037,0-3.1537,1.2142-3.371,3.2078v4.4402h-1.9938v-9.4243h1.9938v2.9541c.1994-1.6309,1.3772-3.0445,3.389-3.0445.2901,0,.5617.0179.7793.0543Z" style="fill: #17181b; stroke-width: 0px;"/>
    <path id="type_CompoundPathItem_-14" data-name="type &amp;lt;CompoundPathItem&amp;gt;" d="m349.6866,73.3872c0,3.2803-2.7365,4.8208-4.7119,4.8208s-4.7124-1.5405-4.7124-4.8208c0-3.2621,2.7371-4.839,4.7124-4.839s4.7119,1.5769,4.7119,4.839Zm-7.4304,0c0,2.0661,1.45,3.0809,2.7186,3.0809s2.7186-1.0148,2.7186-3.0809c0-2.0843-1.45-3.0991-2.7186-3.0991s-2.7186,1.0148-2.7186,3.0991Z" style="fill: #17181b; stroke-width: 0px;"/>
    <path id="type_CompoundPathItem_-15" data-name="type &amp;lt;CompoundPathItem&amp;gt;" d="m360.0529,68.6569v9.4243h-1.9938v-2.1022c-.1812.7247-1.2686,2.2291-3.2621,2.2291-1.8124,0-3.4797-1.0148-3.4797-4.0235v-5.5276h1.9936v5.5276c0,1.7037.7975,2.3019,1.9754,2.3019,1.4679,0,2.6099-1.6494,2.7729-2.646v-5.1834h1.9938Z" style="fill: #17181b; stroke-width: 0px;"/>
    <path id="type_CompoundPathItem_-16" data-name="type &amp;lt;CompoundPathItem&amp;gt;" d="m371.2885,73.369c0,3.2803-2.4646,4.839-4.4581,4.839-1.4861,0-2.5917-.888-2.8636-1.6309v4.9476h-1.9936v-3.4436h-.0182v-9.4243h1.9938v1.4682c.2537-.7796,1.3593-1.5769,2.8815-1.5769,1.9936,0,4.4581,1.5948,4.4581,4.8208Zm-1.9933,0c0-2.0297-1.4679-3.0991-2.7729-3.0991-1.287,0-2.6642.8701-2.6642,3.0991,0,2.2111,1.3772,3.1173,2.6642,3.1173,1.305,0,2.7729-1.0692,2.7729-3.1173Z" style="fill: #17181b; stroke-width: 0px;"/>
    <path id="type_CompoundPathItem_-17" data-name="type &amp;lt;CompoundPathItem&amp;gt;" d="m278.1752,78.1898h-.0725l-8.0829-8.373v8.2644h-2.0482v-12.7953h.0543l8.1014,8.3912v-8.2823h2.0479v12.795Z" style="fill: #17181b; stroke-width: 0px;"/>
    <path id="type_CompoundPathItem_-18" data-name="type &amp;lt;CompoundPathItem&amp;gt;" d="m251.0943,61.9575c-5.4016,0-9.7804,4.3788-9.7804,9.7804s4.3788,9.7804,9.7804,9.7804,9.7804-4.3788,9.7804-9.7804-4.3788-9.7804-9.7804-9.7804Zm4.9262,15.3148h-1.1448l-5.499-5.1964v5.1157h-3.2089v-10.9881h1.1299l5.5141,5.2103v-5.1294h3.2086v10.988Z" style="fill: #17181b; stroke-width: 0px;"/>
    <path id="type_CompoundPathItem_-19" data-name="type &amp;lt;CompoundPathItem&amp;gt;" d="m289.103,73.3872c0,.2537-.0182.4531-.0543.6886h-7.1952c.1994,1.613,1.5769,2.4105,2.8093,2.4105.9423,0,1.613-.2901,2.2291-.8339l1.1781,1.1056c-.8337.9426-2.0118,1.45-3.4072,1.45-2.1204,0-4.8572-1.5405-4.8572-4.8208,0-3.2624,2.646-4.839,4.6757-4.839s4.6217,1.6309,4.6217,4.839Zm-7.2313-.7432h5.2378c-.2176-1.613-1.4682-2.3741-2.6096-2.3741-1.1599,0-2.4105.7611-2.6281,2.3741Z" style="fill: #17181b; stroke-width: 0px;"/>
    <path id="type_CompoundPathItem_-20" data-name="type &amp;lt;CompoundPathItem&amp;gt;" d="m294.1772,74.6375l-2.4649,3.4436h-2.247l3.6063-4.8208-3.3346-4.6035h2.2111l2.2291,3.226,2.2293-3.226h2.2109l-3.3346,4.6035,3.6068,4.8208h-2.2476l-2.4649-3.4436Z" style="fill: #17181b; stroke-width: 0px;"/>
    <path id="type_CompoundPathItem_-21" data-name="type &amp;lt;CompoundPathItem&amp;gt;" d="m309.0742,68.6569v9.4243h-1.9936v-2.1025c-.1815.725-1.2686,2.2293-3.2624,2.2293-1.8124,0-3.4797-1.0148-3.4797-4.0235v-5.5276h1.9938v5.5276c0,1.7037.7973,2.3019,1.9754,2.3019,1.4679,0,2.6099-1.6494,2.7729-2.646v-5.1834h1.9936Z" style="fill: #17181b; stroke-width: 0px;"/>
    <path id="type_CompoundPathItem_-22" data-name="type &amp;lt;CompoundPathItem&amp;gt;" d="m314.3111,70.2337c-.7247,0-1.196.3624-1.196.9241,0,.4895.2537.8337,1.0148,1.1056l1.033.3624c1.5405.5438,2.8454,1.0151,2.8454,2.7729,0,1.8667-1.9756,2.8093-3.6973,2.8093-1.6673,0-3.2439-.8701-3.697-2.4649l1.6491-.5256c.3442.8519,1.1417,1.2868,2.0479,1.2868.8883,0,1.613-.3988,1.613-1.1235,0-.5982-.3988-.9426-1.1963-1.2324l-1.0692-.3806c-1.7396-.6164-2.6096-1.2688-2.6096-2.646,0-1.5948,1.4861-2.5735,3.1899-2.5735,1.6852,0,2.7183.8337,3.3164,2.1747l-1.7219.4713c-.3803-.6707-.8516-.9605-1.5223-.9605Z" style="fill: #17181b; stroke-width: 0px;"/>
    <path id="type_CompoundPathItem_-23" data-name="type &amp;lt;CompoundPathItem&amp;gt;" d="m100.2299,19.2281v12.9565h17.8867v6.3198h-17.8867v18.708h-7.2676V12.9712h28.9453v6.2568h-21.6777Z" style="fill: #17181b; stroke-width: 0px;"/>
    <path id="type_CompoundPathItem_-24" data-name="type &amp;lt;CompoundPathItem&amp;gt;" d="m134.6732,18.7857h-7.0791v-5.8145h7.0791v5.8145Zm0,38.4268h-7.0791V24.3472h7.0791v32.8652Z" style="fill: #17181b; stroke-width: 0px;"/>
    <path id="type_CompoundPathItem_-25" data-name="type &amp;lt;CompoundPathItem&amp;gt;" d="m172.6556,38.1885v19.0239h-6.9521v-18.6445c0-6.2568-2.9707-8.5957-7.0791-8.5957-5.4355,0-8.9746,4.9302-9.7324,8.1533v19.0869h-6.9531V24.3472h6.9531v6.9526c.6318-2.0225,4.4238-7.2686,11.25-7.2686,6.3203,0,12.5137,3.9185,12.5137,14.1572Z" style="fill: #17181b; stroke-width: 0px;"/>
    <path id="type_CompoundPathItem_-26" data-name="type &amp;lt;CompoundPathItem&amp;gt;" d="m210.5756,12.9712v44.2412h-6.9531v-5.4355c-.8213,2.6548-4.7402,5.8779-10.0488,5.8779-6.9521,0-15.5479-5.4355-15.5479-16.875,0-11.25,8.5957-16.8115,15.5479-16.8115,5.3086,0,9.1641,2.7808,10.0488,5.4985V12.9712h6.9531Zm-6.6367,27.8086c0-7.7739-4.8037-10.8076-9.291-10.8076-4.5508,0-9.6699,3.729-9.6699,10.8076,0,7.1421,5.1191,10.8711,9.6699,10.8711,4.4873,0,9.291-3.1602,9.291-10.8711Z" style="fill: #17181b; stroke-width: 0px;"/>
    <path id="type_CompoundPathItem_-27" data-name="type &amp;lt;CompoundPathItem&amp;gt;" d="m248.683,40.8433c0,.8848-.0625,1.5801-.1895,2.4014h-25.0908c.6953,5.625,5.499,8.4062,9.7959,8.4062,3.2871,0,5.625-1.0117,7.7734-2.9077l4.1094,3.8555c-2.9082,3.2866-7.0156,5.0562-11.8828,5.0562-7.3945,0-16.9375-5.3721-16.9375-16.8115,0-11.3765,9.2266-16.875,16.3057-16.875s16.1162,5.688,16.1162,16.875Zm-25.2168-2.5913h18.2656c-.7598-5.625-5.1201-8.2798-9.1016-8.2798-4.0449,0-8.4062,2.6548-9.1641,8.2798Z" style="fill: #17181b; stroke-width: 0px;"/>
    <path id="type_CompoundPathItem_-28" data-name="type &amp;lt;CompoundPathItem&amp;gt;" d="m279.0189,29.4668v-5.1196h6.9521v32.8652h-6.9521v-5.4355c-.8223,2.6548-4.7402,5.8779-10.0488,5.8779-6.9531,0-15.5488-5.4355-15.5488-16.875,0-11.25,8.5957-16.8115,15.5488-16.8115,5.3086,0,9.1641,2.7808,10.0488,5.4985Zm-18.6445,11.313c0,7.1421,5.1191,10.8711,9.6699,10.8711,4.4863,0,9.291-3.1602,9.291-10.8711,0-7.7739-4.8047-10.8076-9.291-10.8076-4.5508,0-9.6699,3.729-9.6699,10.8076Z" style="fill: #17181b; stroke-width: 0px;"/>
    <path id="type_CompoundPathItem_-29" data-name="type &amp;lt;CompoundPathItem&amp;gt;" d="m299.8099,57.2124h-7.8369v-7.7739h7.8369v7.7739Z" style="fill: #17181b; stroke-width: 0px;"/>
    <path id="type_CompoundPathItem_-30" data-name="type &amp;lt;CompoundPathItem&amp;gt;" d="m334.8236,31.6788l-5.6885,2.4648c-1.6436-2.6543-4.6768-4.1714-7.7744-4.1714-4.3604,0-9.6064,3.666-9.6064,10.8711,0,7.1416,5.2461,10.8076,9.6064,10.8076,3.0977,0,6.1309-1.5171,7.7744-4.1714l5.751,2.4648c-3.0967,5.3086-8.4062,7.7104-13.5254,7.7104-7.1416,0-16.4951-5.5615-16.4951-16.8115,0-11.3135,9.3535-16.875,16.4951-16.875,5.0566,0,10.4287,2.4014,13.4629,7.7104Z" style="fill: #17181b; stroke-width: 0px;"/>
    <path id="type_CompoundPathItem_-31" data-name="type &amp;lt;CompoundPathItem&amp;gt;" d="m371.2885,38.1885v19.0239h-6.9512v-18.6445c0-6.2568-2.9707-8.5957-7.0791-8.5957-5.4355,0-8.9746,4.9302-9.7334,8.1533v19.0869h-6.9521V12.9712h6.9521v18.3286c.6328-2.0225,4.4238-7.2686,11.25-7.2686,6.3203,0,12.5137,3.9185,12.5137,14.1572Z" style="fill: #17181b; stroke-width: 0px;"/>
  </g>
  <path id="logoMark" d="m34.1099,0C15.27,0,0,15.2799,0,34.11c0,18.84,15.27,34.11,34.1099,34.11,18.8301,0,34.1001-15.27,34.1001-34.11C68.21,15.2799,52.9399,0,34.1099,0Zm-5.5701,51.85l-15.4099-16.79,8.4199-7.8899,7.5801,8.4299,20.72-19.22,8.1599,8.1599-29.47,27.3101Z" style="fill: #213366; stroke-width: 0px;"/>
</svg>
